<svg xmlns="http://www.w3.org/2000/svg" viewBox="699.9 287.1 442.8 80" xml:space="preserve"><style>.st0{fill:#26318B;enable-background:new ;} .st1{fill:#0198D8;enable-background:new ;} .st2{fill:#CFD4D2;enable-background:new ;} .st3{fill:#1E2D7D;enable-background:new ;} .st4{fill:#2A357C;stroke:#2A357C;stroke-width:0.7;stroke-miterlimit:10;} .st5{fill:#5192CC;} .st6{fill:#283170;} .st7{fill:#C3DAEC;} .st8{fill:#69B40F;stroke:#69B40F;stroke-width:1.2;stroke-miterlimit:10;}</style><path class="st0" d="M719.2 322.1h18.1l.1 1.5c0 3.2-.8 6.1-2.5 8.9-1.6 2.8-3.7 5-6.3 6.5-2.6 1.5-5.6 2.2-9.1 2.2-3.7 0-7.1-.8-10-2.4-2.9-1.6-5.2-3.9-6.9-6.9-1.7-3-2.6-6.2-2.6-9.7 0-4.8 1.6-8.9 4.7-12.4 3.7-4.2 8.6-6.3 14.6-6.3 3.1 0 6.1.6 8.8 1.7 2.3 1 4.6 2.7 6.8 5L730 315c-3.1-3.2-6.6-4.8-10.7-4.8-3.5 0-6.5 1.2-8.9 3.5-2.4 2.4-3.6 5.2-3.6 8.6 0 3.5 1.3 6.4 3.7 8.8 2.5 2.4 5.5 3.6 9.2 3.6 2.4 0 4.4-.5 6-1.5 1.6-1 2.9-2.6 3.9-4.7h-10.4v-6.4zm20.4 18.2v-36.8h6.7v36.8h-6.7zm67.5-3.3c-2.5 2.7-5.5 4-8.9 4-1.5 0-3-.3-4.3-.8s-2.6-1.4-3.9-2.7v2.8h-6.6v-36.8h6.6v13.2c1.2-1.2 2.5-2.1 3.9-2.7 1.4-.6 2.9-.9 4.5-.9 3.5 0 6.4 1.3 8.8 3.9 2.4 2.6 3.7 6 3.7 10.1-.1 4-1.3 7.3-3.8 9.9zm-5-15.6c-1.4-1.5-3.1-2.2-5.2-2.2s-3.9.7-5.2 2.2c-1.4 1.4-2.1 3.3-2.1 5.6 0 2.4.7 4.3 2.1 5.7 1.4 1.5 3.1 2.2 5.2 2.2 2 0 3.8-.8 5.2-2.2 1.4-1.5 2.1-3.4 2.1-5.7 0-2.2-.7-4.1-2.1-5.6zm31.4 18.9v-2.8c-1.3 1.2-2.6 2.1-3.9 2.7-1.3.6-2.7.8-4.3.8-3.4 0-6.4-1.3-8.9-4s-3.8-6-3.8-9.9c0-4.1 1.2-7.5 3.6-10.1 2.4-2.6 5.4-3.9 8.8-3.9 1.6 0 3.1.3 4.5.9 1.4.6 2.7 1.5 3.9 2.7v-2.9h6.7v26.6l-6.6-.1zm-1.8-18.9c-1.4-1.4-3.1-2.2-5.2-2.2s-3.8.7-5.1 2.2c-1.4 1.5-2.1 3.3-2.1 5.6s.7 4.2 2.1 5.7c1.4 1.5 3.1 2.2 5.1 2.2 2.1 0 3.8-.7 5.2-2.2 1.4-1.5 2.1-3.4 2.1-5.7-.1-2.3-.7-4.2-2.1-5.6zm11.9 18.9v-36.8h6.7v36.8h-6.7zM768.9 313.9c-6.4 0-11.6 5.4-11.6 12s5.2 12 11.6 12c2.9 0 5.7-.8 7.8-2.4-2.7 3.1-6.7 5.1-11.1 5.1-8.1 0-14.6-6.5-14.6-14.6s6.5-14.6 14.6-14.6c4.5 0 8.6 2.1 11.3 5.3-2.2-1.8-5-2.8-8-2.8z"/><path class="st1" d="M926.2 340.7v-2.8c-1.3 1.2-2.6 2.1-3.9 2.7-1.3.6-2.7.8-4.3.8-3.4 0-6.4-1.3-8.9-4s-3.8-6-3.8-9.9c0-4.1 1.2-7.5 3.6-10.1 2.4-2.6 5.4-3.9 8.8-3.9 1.6 0 3.1.3 4.5.9 1.4.6 2.7 1.5 3.9 2.7v-2.9h6.7v26.6l-6.6-.1zm-1.8-18.9c-1.4-1.4-3.1-2.2-5.2-2.2s-3.8.7-5.1 2.2c-1.4 1.5-2.1 3.3-2.1 5.6s.7 4.2 2.1 5.7c1.4 1.5 3.1 2.2 5.1 2.2 2.1 0 3.8-.7 5.2-2.2 1.4-1.5 2.1-3.4 2.1-5.7 0-2.3-.7-4.2-2.1-5.6zm25.5 18.9h-4.3l-11.3-26.6h6.8l6.7 15.7 6.7-15.7h6.8l-11.4 26.6zm39.3-11.4h-21.4c.3 1.9 1.1 3.4 2.5 4.5s3.1 1.7 5.2 1.7c2.5 0 4.6-.9 6.4-2.6l5.6 2.6c-1.4 2-3.1 3.5-5 4.4-2 1-4.3 1.4-7 1.4-4.2 0-7.6-1.3-10.2-4s-3.9-5.9-3.9-9.9c0-4.1 1.3-7.4 3.9-10.1 2.6-2.7 5.9-4 9.8-4 4.2 0 7.6 1.4 10.2 4 2.6 2.7 3.9 6.2 3.9 10.6v1.4zm-9.3-8.8c-1.3-.9-2.8-1.4-4.5-1.4-1.9 0-3.5.5-4.9 1.6-.9.7-1.7 1.8-2.5 3.5h14.5c-.4-1.6-1.3-2.8-2.6-3.7zM863.4 303.7v37h9.4l12.1-26.4 2.8 26.4h7.6l18.6-46.2-9.8 4.8-10.5 26.5-2.4-22.2h-8.8l-10.2 22.3-1-22.3"/><path class="st2" d="M703.9 366.9c38.8-30.3 104.2 23.9 151.8-13.8-91.2 36.4-97.8-38.2-151.8 13.8z"/><path class="st1" d="M699.9 363.9c38.8-30.3 125 31 162.9-20.1-55.5 42.5-108.9-31.9-162.9 20.1z"/><path class="st3" d="M701.4 299.2v-12.1h2.4v12.1h-2.4zm10.1 0v-5.6c0-.6-.1-.9-.3-1.2-.2-.2-.5-.4-.9-.4-.6 0-1.3.4-1.9 1.1v6h-2.3v-8.8h2.3v.5c.7-.5 1.4-.7 2.1-.7 2.2 0 3.3 1.1 3.3 3.4v5.6l-2.3.1zm9.7 0v-5.6c0-.6-.1-.9-.3-1.2-.2-.2-.5-.4-.9-.4-.6 0-1.3.4-1.9 1.1v6h-2.3v-8.8h2.3v.5c.7-.5 1.4-.7 2.1-.7 2.2 0 3.3 1.1 3.3 3.4v5.6l-2.3.1zm12.3-2.5c-.2.6-.5 1.1-.9 1.5-.4.4-.8.7-1.4.9-.6.2-1.1.3-1.8.3s-1.3-.1-1.8-.3c-.5-.2-1-.5-1.4-.9-.4-.4-.7-.9-.9-1.5-.2-.6-.3-1.2-.3-2 0-.7.1-1.4.3-1.9.2-.6.5-1.1.9-1.5.4-.4.8-.7 1.4-.9.6-.2 1.1-.3 1.8-.3s1.3.1 1.8.3 1 .5 1.4.9c.4.4.7.9.9 1.5.2.6.3 1.2.3 1.9 0 .8-.1 1.5-.3 2zm-2.2-3.1c-.1-.4-.2-.6-.4-.9-.2-.2-.4-.4-.7-.5-.3-.1-.5-.2-.8-.2s-.6.1-.8.2c-.3.1-.5.3-.7.5-.2.2-.3.5-.4.9-.1.4-.2.8-.2 1.2 0 .5.1.9.2 1.2s.2.6.4.9c.2.2.4.4.7.5.3.1.5.2.8.2s.6-.1.8-.2c.3-.1.5-.3.7-.5.2-.2.3-.5.4-.9.1-.4.2-.8.2-1.2 0-.5-.1-.9-.2-1.2zm8.4 5.6h-1.9l-3.5-8.8h2.5l2 5.5 2-5.5h2.5l-3.6 8.8zm9.9 0v-.5c-.4.2-.8.4-1.2.5-.4.1-.9.2-1.4.2-.5 0-.9-.1-1.3-.2s-.8-.3-1-.6c-.3-.3-.5-.5-.7-.9-.2-.3-.3-.7-.3-1.1 0-2.1 1.8-3.2 5.5-3.2h.4v-.6c0-.2-.1-.3-.2-.5-.1-.1-.3-.2-.5-.3-.2-.1-.5-.1-.9-.1-.5 0-.8.1-1.1.2-.3.1-.5.4-.6.8H744c.3-1.9 1.6-2.8 4-2.8.6 0 1.1.1 1.6.2s.9.3 1.2.5.6.6.8 1.1c.2.5.3 1 .3 1.7v5.6h-2.3zm0-3.9h-.6c-1.9 0-2.9.5-2.9 1.3 0 .3.1.5.4.7.3.2.6.3 1 .3s.8-.1 1.2-.3c.4-.2.7-.4 1-.7v-1.3h-.1zm6.7 1.8c0 .1 0 .2.1.3 0 .1.1.1.1.1h.7c.2 0 .4-.1.6-.1v1.8c-.3.1-.6.1-.8.2-.3 0-.5.1-.7.1-.5 0-1-.1-1.3-.2-.3-.1-.6-.3-.7-.5-.2-.2-.3-.5-.3-.9-.1-.4-.1-.8-.1-1.2v-4.4h-1.1v-1.8h1.1v-2.2h2.3v2.2h1.4v1.8h-1.4v4.4c.1.1.1.3.1.4zm2.5 2.1v-8.8h2.3v8.8h-2.3zm0-12.1h2.3v2.3h-2.3v-2.3zm8.7 12.1h-1.9l-3.5-8.8h2.5l2 5.5 2-5.5h2.5l-3.6 8.8zm6.4-3.7c.1.7.4 1.2.8 1.6s.9.5 1.4.5c.2 0 .4 0 .5-.1s.4-.1.5-.2c.2-.1.3-.2.4-.4.1-.1.2-.3.3-.5h2.4c-.1.5-.3.9-.6 1.3s-.6.7-.9.9c-.4.3-.8.5-1.2.6-.5.1-.9.2-1.4.2-.7 0-1.3-.1-1.9-.3-.6-.2-1-.5-1.4-.9s-.7-.9-.9-1.5c-.2-.6-.3-1.2-.3-1.9s.1-1.4.3-1.9c.2-.6.5-1.1.9-1.5.4-.4.9-.7 1.4-.9s1.1-.3 1.8-.3 1.3.1 1.8.3c.5.2 1 .5 1.4.9.4.4.7.9.9 1.5.2.6.3 1.2.3 1.9v.7h-6.5zm3.2-3c-.3-.3-.7-.4-1.2-.4s-.9.1-1.2.4c-.4.3-.6.7-.7 1.2h3.8c-.1-.6-.4-1-.7-1.2z"/><path class="st4" d="M868.8 352.6h-4.1v11.5h-2.3v-11.5h-4.2v-1.9h10.5l.1 1.9zM880.4 364.1h-10.1v-13.4h9.9v1.9h-7.7v3.7h6.5v1.9h-6.5v4.1h8l-.1 1.8zM893.9 359.9c-.5 1.5-1.3 2.6-2.4 3.4-1.1.8-2.4 1.2-3.8 1.2-2.1 0-3.6-.7-4.8-2.2-1-1.3-1.5-2.9-1.5-4.9 0-2 .5-3.7 1.6-5 1.2-1.4 2.8-2.1 4.9-2.1 2.7 0 4.6 1.2 5.7 3.6h-2.3c-.8-1.2-1.9-1.8-3.4-1.8s-2.6.6-3.3 1.6c-.7.9-1 2.1-1 3.6s.3 2.7 1 3.6c.8 1.1 1.9 1.7 3.3 1.7 1.9 0 3.2-.9 3.8-2.8h2.2zM907.1 364.1h-2.3v-6h-6.7v6h-2.2v-13.4h2.2v5.6h6.7v-5.6h2.3v13.4zM921.1 364.1h-2l-7.1-10v10h-2.1v-13.4h2l7.1 9.9v-9.9h2.1v13.4zM936.5 357.3c0 2.1-.6 3.8-1.7 5-1.2 1.3-2.8 1.9-5 1.9-2.1 0-3.8-.7-4.9-1.9-1.1-1.2-1.6-2.8-1.6-4.9s.6-3.7 1.7-4.9c1.2-1.3 2.8-1.9 5-1.9 2.1 0 3.7.6 4.9 1.9 1 1.3 1.6 2.8 1.6 4.8zm-2.2 0c0-1.5-.3-2.6-1-3.5-.8-1-1.9-1.4-3.4-1.4s-2.7.5-3.4 1.5c-.7.9-1 2.1-1 3.5 0 1.5.3 2.7 1 3.5.8 1 1.9 1.5 3.4 1.5 2.9.1 4.4-1.6 4.4-5.1zM947.6 364.1h-8.9v-13.4h2.2v11.5h6.7v1.9zM961 357.3c0 2.1-.6 3.8-1.7 5-1.2 1.3-2.8 1.9-5 1.9-2.1 0-3.8-.7-4.9-1.9-1.1-1.2-1.6-2.8-1.6-4.9s.6-3.7 1.7-4.9c1.2-1.3 2.8-1.9 5-1.9 2.1 0 3.7.6 4.9 1.9 1.1 1.3 1.6 2.8 1.6 4.8zm-2.2 0c0-1.5-.3-2.6-1-3.5-.8-1-1.9-1.4-3.4-1.4s-2.7.5-3.4 1.5c-.7.9-1 2.1-1 3.5 0 1.5.3 2.7 1 3.5.8 1 1.9 1.5 3.4 1.5 3 .1 4.4-1.6 4.4-5.1zM975.2 364.3h-1.9v-1.4c-1.2 1-2.6 1.5-4.2 1.5-2 0-3.6-.7-4.7-2.1-1-1.3-1.5-2.9-1.5-4.9 0-2 .5-3.7 1.6-4.9 1.2-1.4 2.8-2.1 4.9-2.1 1.3 0 2.4.3 3.4.9s1.8 1.5 2.4 2.7h-2.3c-.8-1.2-2-1.8-3.5-1.8s-2.5.6-3.3 1.6c-.6.9-.9 2.1-.9 3.5 0 1.5.3 2.7.9 3.6.7 1.2 1.8 1.7 3.3 1.7.9 0 1.8-.2 2.5-.7.8-.5 1.3-1.1 1.5-2v-1.2h-3.7v-1.8h5.7l-.2 7.4zM988.8 350.8l-5.1 7.3v6.1h-2.3v-6.1l-5-7.3h2.7l3.5 5.4 3.6-5.4h2.6z"/><path class="st5" d="M779.5 326.1c0 5.7-4.5 10.3-10.4 10.3-5.7 0-10.2-4.6-10.2-10.3 0-6 4.9-10.4 10.2-10.4 5.5 0 10.4 4.3 10.4 10.4z"/><path class="st6" d="M779.4 327.3c-.1.7-.3 1.6-.5 2.1-.5 1.5-1.7 3.6-3.5 4.9 1-1 1.6-1.7 1.8-2.9.5-.6-.2-.6-.1-1.1 0 0 .2-.3.2-.5 0-.1-.2-.1-.2-.2 0-.4.2-1 .2-1.5-.3-.3-1.6-.4-1.7-1.4.3-.6 2.7-.6 3.1-1.2.3 0 .4.6.7.6.1.4.1.7 0 1.2z"/><path class="st7" d="M759.9 321.5c1.2-2.6 3.5-4.5 6.2-5.4.9-.3 1.8-.5 2.8-.5-.5.1-1.2.1-1.6.2-.1 0-.2.1-.3.1-.3.1.2 0-.3.1h-.1c-.1 0-.1.1-.1.1l-.4.2-.1.1h-.2l-.2.1c-.1 0-.1 0-.2.1 0 0 .2-.1.1 0 0 0-.3.1-.4.2-.1 0-.1.1-.1.1l-.1.1c.1 0 .1-.1.2-.1l-.1.1c-.1 0-.1 0-.2.1 0 0-.2.1-.1.1s.3 0 .4-.1c0 0-.1 0 0 0s.1-.1.2-.1c0 0 0-.1.1-.1v.1c0 .1-.1.1-.2.1h-.1v.1c-.1 0-.1.1-.1.1-.1 0-.1 0-.1.1v.1c-.1 0-.2.1-.2.1.1 0 .2-.1.2-.1h.1s.1-.1.2-.1 0 .1-.1.1l-.2.1c-.1 0-.1.1-.2.1 0 0-.1.1-.1 0s.1-.1 0-.1c-.2 0-.1.3-.3 0l.2-.1.1-.1s-.1 0-.1.1c0 0-.1 0-.1.1 0 0 0 .1-.1.1s-.2.1-.2 0 .1-.2.2-.2l-.1.1c-.1 0-.1.1-.2.1s-.2 0-.3.1c-.1 0-.2.1-.2.1-.1.1-.2.2-.3.2v.1l-.3.3-.1.1-.1.1v.2c0 .1-.1.1-.1.1-.2.1-.3.2-.4.4l-.2.2c0 .1.1-.1.1-.1h.1l.1-.1.1-.1.2-.2.1.1c.1 0 .2-.1.3-.2.2-.1.1-.1.3-.3 0-.1.2-.1.2-.1.1 0 .2-.1.3-.1.1 0 .1-.1.2-.1 0 .1 0 .1-.1.1 0 .1 0 .2-.1.2 0 0 0 .1-.1.1v.1h-.2v.1l-.1.1c0 .1-.1.1-.1.2h-.1c.1.1.2 0 .2 0s.1 0 .1-.1l.2-.1c.1.3-.1.1-.2.2v.1c-.1.1-.1.1-.2.1h.1s-.1 0-.1.1c-.1.1-.1.2-.2.2 0 .1-.1.1-.1.2l-.2.2h.1c0 .1-.1.1-.1.1v.2s-.2-.1-.1.1v-.1c0 .1-.1.1-.1.2-.1.2.2.1-.1.3-.3.2-.1 0-.2-.1 0 0 0 .1-.1.1h-.1c-.1-.1 0-.4-.1-.4 0-.1-.1.1-.2.1 0 0 0-.1-.1-.1s0 .1-.1.1c0 .1-.1.1-.2.1.1 0 .2 0 .3.1v.1s0 .1-.1.1c0 0 0-.2-.1-.1v.2s-.1 0-.1.1c-.1.1-.1.1-.1.2s-.1.1-.1.2v.3l-.1-.1h-.2l.1-.2s.1.1.2.1v-.1c0-.1.1-.1.1-.1 0-.1-.1.1-.1.1v-.1s0 .1-.1.1-.1-.1-.2-.1l-.2.2s0-.1-.1-.1v.1c0 .1-.1.2-.1.1s.2-.2.1-.2c-.2.3 0 0-.2.2 0 0-.1.2-.1.1l.2-.3c0 .1 0 .1-.1.2v.1c0-.1.1-.1.1-.2 0 .1-.1.2-.2.3l-.1.1c0-.1 0-.1.1-.1v.1c0 .1-.1.1-.1.2s-.1.2-.1.1.1-.1.1-.2v.1c0 .1 0 .1-.1.1v0c-.1-1.1-.2-1-.2-1 0 .1 0 0 0 0zM773.3 327.6h-.2c-.1 0-.1.1-.1.1h-.1s-.1.2-.2.2c-.2 0-.4 0-.6-.1h-.1l-.1.1c-.1 0-.2-.1-.3-.1h-.1v-.1c-.1 0-.1-.1-.2-.1s-.3.1-.3.1c-.1.4 0 .4-.2.6-.1.1-.2-.1-.3-.1 0 0-.1-.1-.2-.1s-.3 0-.4-.1c0-.1 0-.2-.1-.2-.6-.3-.2 0-.6-.1-.2 0-.2-.2-.3-.2h-.1c-.2-.2.2-.2.2-.4 0-.1-.2-.2-.2-.2.1-.2.3-.2-.1-.3-.1 0-.1.1-.3.1h-.2-.1c-.1 0-.1-.1-.1-.1l-.1.1s-.1.1-.2.1-.2-.1-.3-.1c-.2 0-.6 0-.7.1 0 0 0 .1-.1.1h-.2c-.1 0-.1.1-.2.1-.1.1-.2-.1-.2-.1l-.1.1s-.2 0-.3-.1l-.1-.1s0-.2-.1-.1-.2.4-.3.4c-.1 0-.2 0-.3.1 0 0 0 .1-.1.1 0 0-.1 0-.1.1v.1c0 .1-.1.1-.1.1-.1.3.1.3-.2.5-.1.1-.3.2-.4.2-.1 0-.2-.1-.2 0s-.1.1-.1.2c-.1.1-.2 0-.2.1s-.1.1-.1.2v.1c0 .1-.1.1-.2.1 0 0-.1 0-.1.1 0 0 .1-.1.1 0s-.1.1-.1.2c0 0 0 .1-.1.1l-.1.1v.1c0 .1-.1.1-.1.2 0 0 .1 0 .1.1s.1.1.1.1-.1.1-.1.2.1.3 0 .4c0 .1-.1.1-.1.2s0 .1-.1.2h-.1s.1 0 .1.1.1.1.2.2v.2c0 .1-.1-.1-.1-.1v.1l.2.2-.1-.1s-.2-.1-.1 0c0 .1.1.1.1.1h.2s-.1 0-.1.1.1.1.1.1 0 .1.1.1c0 .1.1.1.1.1 0 .1.1.1.1.2v.1c0 .1.1.1.1.2s.2.1.2.1-.1 0 0 0c0 .1.1.1.1.1l.1.1.2.2c.1.1.3.4.5.4.4.1.7.1 1.1.2 0 0-.1 0 0 0s.3.1.4.1h1.2c.1 0 .1.1.2.1h.1c.1.1 0 .3.2.3l.1-.1c.1 0 .2.1.2.1h.2s-.1-.1 0-.1c.1-.1.1.1.2.2 0 0 .1-.1.2 0s0 .2 0 .3v.2c-.3.9.1-.7-.3.2v.1s0 .1.1.1h.1-.1c.1 0 .1.1.2.1h-.1c.1.1.4.2.5.3.1.1 0 .1.1.2 0 .1.2.2.2.3h-.1c0 .1.2.2.2.2-.1.1-.1.1-.2.1h-.1s0 .1-.1.1c0 0-.1 0-.1.1v.2c.1 0 .1 0 .2.1s.2.1.3.1c.2.1.4.1.5.1.2 0 .4 0 .6-.1.5-.1 1-.2 1.5-.4.3-.1.5-.2.8-.3l.2-.1c.1-.1.1-.1.1-.2 0 0 .1 0 .1-.1l.4-.2c.3-.2.6-.3.8-.5 0-.1.1-.1.1-.2v-.1l.1-.1c0-.1-.1-.1-.1-.2s.1-.1.1-.1-.1 0-.1-.1.2-.2.2-.3v-.1-.1c0-.1.1-.1.2-.1 0 0 .1 0 .1-.1.1-.1.1-.1.1-.2.2-.2.3-.4.5-.5l.3-.3c.1-.2.3-.3.3-.5.1-.1.1-.3.2-.4 0-.1.1-.3.1-.4 0-.1.1-.2.2-.4v-.2s0-.1.1-.1v-.1-.1h-.1c0 .1 0 .1-.1.2 0 .1-.1.1-.1.1l-.1.1v.1s-.1 0-.1.1l-.2.2h-.1c-.1.1-.3.1-.4.1l-.1.1c0-.1.1-.1.2-.2 0-.1-.4-.3-.4-.3h-.2s0-.1-.1-.1 0 .1 0 .1c-.1-.1-.1-.4-.3-.5-.1-.1-.1-.1-.2-.1h-.1c0-.1 0-.1-.1-.2 0-.1 0-.2-.1-.2 0 0 .1 0 0 0l-.1-.1v-.1c0-.1-.1-.1-.2-.1 0 0-.1 0-.1-.1s.1-.1 0-.2-.1-.1-.2-.1l-.2-.2s-.1 0-.2-.2v-.1c0-.1-.1-.1-.1-.2-.1-.1-.2-.1-.3-.3"/><path class="st7" d="M773.6 328c.2.1.2.4.4.3.1 0 .1-.2.1-.2v.1s.1-.1.1 0c.1 0 .2.2.2.2l.1.1h.1v.1l.1.1c0 .1.1.1.2.2 0 0 .1 0 .1.1.1.1.1.2.2.3V329.6c.2.2.1 0 .3.2.1.1.1.2.2.3h.1c.1.1.1.3.1.4h.1c0 .1 0 .1.1.2 0 0 0 .2.1.2.3-.1.2-.2.4-.3 0 0 .1-.1.2-.1l.2-.2s.1 0 .1-.1 0-.1.1-.2c0-.1.1-.1.2-.2s.2-.2.2-.3v-.1l.2-.3.1-.1v-.2c0-.1.1-.1.1-.1v-.2c.1-.3.2-.7.2-1 0-.1-.2.1-.4-.1-.1-.1-.1-.3-.2-.3l-.1.1v.1c0 .1-.1.2-.1.3 0 .1-.3.3-.3.3-.2.1-.1-.2-.1-.2s-.1-.1-.1 0 .1.1.1.2c-.1 0-.1-.3-.2-.3 0-.1-.1-.1-.2-.1-.1-.1-.1-.1-.1-.2-.1-.1-.1-.1-.2-.1l.1-.1-.1-.1h.1l.2-.2.2.2c0 .1 0 .1.1.1h.2c.1 0 .2.2.3 0 .1-.1.2-.4.2-.3.1 0 .1.2.1.2l.2-.1.2-.2s.1 0 .1-.1l.3-.3c0-.1 0-.1.1-.1v-.1.1c.1 0 .1.1.2.1l.1.1c0-.1 0-.2.1-.2v.1c0 .1 0 .1-.1.2.1-.2.1-.3.3-.4.1-.1 0 .1 0 .2s0 .3.1.4v-.1.5c.1.2.1.1.1.3 0 .2.1.4.1.5 0 0 0 .1 0 0 .2-1.2.1-1.7.1-3.1v-.1-.5-.1-.1c-.2-.7-.4-1.3-.6-2-.5-1.2-1.2-2.2-2.1-3.1-1.4-1.5-3.3-2.5-5.3-2.9-.7-.1-1.1-.2-1.8-.2.5.1 1 .1 1.5.2 0 0 .3.1.4.1.1 0 .1.1.1.1.1.1.3.1.4.2.1 0 .1.1.2.1 0 0 0 .1.1.1l.3.1c0 .1-.1.1-.1.2 0 0 .1.1 0 .1h-.1c0 .1.2.1.2.2s-.1 0-.2 0v.1s.1 0 .1.1l.1.1.1.1c-.1-.1-.5-.3-.6-.3 0 0-.4 0-.4.1.1.2.4.1.5.2h-.1s-.1-.1-.2 0c0 0 0 .1.1.1s0 .1 0 .2c.1.1.1.1.2.1 0 0-.1 0 0 0 .1.1.3.1.4.1h-.1s0-.1-.1-.1v.2c0 .1.1 0 .1.1.1 0 .2 0 .3.1l.1.1c.1 0 .2.1.2.1h-.1s-.4-.2-.4-.1c-.1.2.3.2.3.2 0 .1-.1.1-.2.1l-.2-.1h-.1c.1.1.1.1.2.1 0 0 0 .1.1.1 0 0 .1 0 .2.1h.1l.2.2c.1 0 .1-.1.2-.1.2 0 .1.1.2.1 0 0 .1-.1.1 0 0 0 0 .1-.1.1 0 0-.2-.2-.3-.1v.1c0 .1.2.1.2.1.2.2 0 0 .1.2 0 0 .1 0 .1.1-.1.1-.2.1-.2.1 0-.1.1-.1.1-.1 0-.1-.1-.2-.2-.3h-.1c-.1-.1-.2-.1-.3-.2 0 0 0-.1-.1-.1 0 0-.1 0-.2-.1l-.2-.2c-.3.1 0 .2.1.2v.1h.1c.1.1.2.1.4.2-.1 0-.2.1-.2.1-.2.1-.1-.1-.3.1-.1.1 0 .1.1.1 0 0 0 .1.1.1l.1.1c-.1 0-.1 0-.2.1-.2.1-.1.1-.2.2v-.1c0-.1 0-.1-.1-.1s0 0 0 .1v.1c-.1.1-.1.2-.1.3v.2s-.1 0-.2-.1.1-.1.1-.1c-.1 0-.2 0-.2.1-.1.1.2.2.2.2.1.1-.2.1-.2.1v.1c0 .1-.1.1-.1.2s.2.1.2.1c0 .1-.1.1-.2.1v-.1c-.1 0-.1-.1-.2 0v.1c.1 0 .1 0 .2.1v.1c-.1 0-.2 0-.3-.1h-.1c-.1-.1-.1-.1-.1-.2 0 0 .1-.1 0-.1 0-.1-.2-.1-.1-.1 0-.1.2-.1.3-.1h.1c.1-.2.3-.3 0-.4h-.1c-.1-.1-.3-.1-.4-.1h-.2v.1s-.1-.1-.2-.1h-.1c-.1-.1-.1-.1-.1-.2h-.2c-.4 0 .1.1-.3.3h-.2c-.1 0 .2 0 .1.1h-.1-.1c-.3.1 0 .1-.2.3h-.1v.1c0 .3 0 .1-.2.2v.1h-.1V321.6c-.2.4.1-.3-.2.1 0 0 .1.1 0 .1-.2.1 0-.1-.1 0 0 .1-.2.1-.1.1.1.1.1-.1.2-.1v.1h-.2s0 .1-.1.1h-.2c0 .1 0 .2-.1.2s-.1-.1-.1 0v.1c.1 0 .2-.1.2 0 .1.1-.2.1-.2.1h.4c-.1 0-.2.1-.3.1h.1-.1c0 .1.1.1.2.1 0 0 .1-.1.1 0 0 .2-.5.2-.2.4.1.1.2.1.3.1l.2-.2v-.1l.1-.1v-.1.2c0 .1.1.1.2.2v.2c.1.6 0-.1.2.2V323.7h.2v-.2c.1-.1.2-.1.2-.2v-.1-.1-.1-.1s-.1 0-.1-.1.1 0 .2 0 .1-.1.1-.1h-.1s0-.1-.1-.1v.1l.2-.1-.2-.2s-.1-.3-.1-.4c0-.1.1-.1.1-.1.1-.1.1-.1.1-.2 0 0 .1 0 .1-.1.2-.2 0-.1 0-.2l.1-.1h-.1c0-.1.2-.1.3-.1s.2.1.2.2c0 0-.1 0-.1.1s0 .1-.1.2c0 0 0 .1-.1.1v.1c0 .1-.1.1-.1.1 0 .1.1.2.1.4v.1l.3.1-.1.1c.1 0 .1-.1.2-.1h.1s.1-.1.2-.1.1-.1.1-.1c.1 0 .2 0 .3.1h-.1s0 .1-.1.1c-.2.1-.3.1-.4.2v.1h-.1l.1.2h.1v.1c0 .1.1.1.1.1-.2.2-.2-.2-.4 0V323.6c0 .1.1.2.1.3v.1h-.2v.1c-.1.1-.1-.1-.2-.1s-.1.1-.2.1h-.1s0 .1-.1.1h-.1c-.1 0-.1.1-.2.1-.1-.1-.2-.2-.3-.2 0 0 0 .1-.1.1-.1.1-.2 0-.3-.1v-.1h-.1v-.2h.1v-.1h.1c.1-.1 0-.3 0-.4h-.1l-.1.1h.1s-.1 0-.1.1c0 0-.2.2-.2.3 0 .1.1.2.1.3v.1c0 .1.2.1.1.1 0 0-.1-.1-.2-.1s0 .1 0 .1 0-.1-.1-.1-.1.1-.1.1-.1-.1-.2-.1-.1.1-.1.1c0 .1 0 .1-.1.2v.2h-.1c-.1 0-.1.1-.2.1h-.2v.2c0 .1-.1 0-.2.1l-.1.1v.1h-.2v-.1s-.1-.1-.1 0c-.2.3.3 0-.1.3 0 0-.1.1-.1 0 0 0 0-.1-.1-.1 0 0-.3 0-.3.1s.1.2.2.3c0 0 .1-.1.1 0 0 0-.1 0 0 .1 0 0 .1 0 .1.1l-.1.1s0 .1.1.1c0 .1.1.2.1.3 0 .2 0 .2-.1.3 0 .1 0 .1-.1.2 0 .1-.2 0-.2 0h-.1s0-.1-.1-.1h-.2c-.2 0-.3-.1-.4-.1-.1 0-.1-.1-.1-.1-.5 0-.2.1-.2.3 0 .1-.1.3-.1.4 0 .1-.1.2-.2.3 0 .1-.1.1-.1.2 0 .2.1.4.3.5h.1c.1 0 0 .1.1.2 0 .1.1.1.2.2.2 0 .4-.1.6-.1 0 0 0 .1.1 0 .1 0 .1-.1.1-.2h.2v-.1c0-.1.1-.1.2-.1v-.2c0-.1 0-.1.1-.1l.3-.3c.2-.1.1.1.3-.1v-.2-.2c.1-.1.2-.1.4-.1v.1c.1 0 .1.1.2.1s.2-.1.2-.2h.1c.1 0 .1-.1.1-.1.2 0 .3.2.3.3v.1c0 .1.1.1.1.1h.1l.1.1c0 .1.2.1.2.2v.1h.1c.1 0 0 .1.1.1h.1c.1 0 .1.1.1.2h.1c.1.1.1.2.1.3 0 .1-.2.2-.1.2.1.1.2-.1.2-.1v-.1s.1 0 .1-.1c.1-.2-.2-.1-.1-.3 0-.1.1-.2.2-.1 0 0 0 .1.1.1 0 0 .1.1.1-.1-.1-.2-.3-.2-.5-.3-.1-.1-.3-.2-.4-.3-.1-.1-.1-.2-.1-.3-.1-.1-.3-.2-.3-.3 0-.1.1-.2.2-.3v.1s.1 0 .2.1.1.1.1.2c0 0 .1 0 .1.1h-.1c.2.3.4.1.5.3 0 .1-.2-.1-.1 0s.2.1.3.1c.1.2.2.3.2.5 0 0-.1 0 0 0l.1.1v.1s0 .1.1.1l.1.1c.1.1.1.1.2.1h.2c.1 0 .1 0 .2.1 0 0 0 .1-.1.1s-.3-.2-.3.1c0 .1.1.1.1.1v.2s0-.1.1-.1 0 .1.1.1v-.1c.1 0 .1.1.1.1v-.1c0-.1-.1-.1-.1-.2s.1-.2.2-.2.1.1.1.1c.1 0 0-.1 0-.1l-.2-.1h-.1c0-.1.1-.1.2-.1 0-.2-.1-.1-.2-.2v-.1c.1 0 .2.2.3.1l-.1-.1.1.1c0-.1-.1-.1-.2-.1h.1s.1 0 .1-.1v-.1c.1 0 .1 0 .2.1v.2c.1 0 .1-.1.1-.1l.1-.1v-.1h.2c-.1-.1-.1-.1-.2-.1 0 0 0-.1-.1-.1 0-.1-.1-.1-.1-.1v-.2c0-.1.1-.2.1-.4v-.1c0-.1.1-.1.1-.1s.1-.1.1-.2 0-.1.1-.2c0 0 0-.1.1-.1s.1.1.1 0-.1-.2-.1-.1c.1.1.1.1.1.2v.1c.1.1.2 0 .3 0s.1 0 .1.1c0 0-.2.1-.2.2s.1 0 .2 0c0 0 0 .2.1.2l.1-.1s.1 0 .1-.1v-.1h.1c0-.1-.1 0-.2-.1 0 0-.1-.1-.1-.2.1-.3.1-.1.3-.2v-.1c.1-.1.1-.1.2-.1s.1-.1.2-.1c.1.1-.2.2-.2.2-.1.1.1 0 .2.1h-.1v.2c0 .1-.2 0-.2.1.1.1.2.1.3.1h.1c.1 0 .2.1.2.1.2.1.3.1.4.3v.1c-.1.1-.1.2-.2.2h-.1c-.2 0-.4 0-.6.1 0 0-.1.1-.1 0 0 0 0-.1-.1-.1s-.1.1-.2.1h-.1l-.3.3c-.1.1-.2.1-.2.1h-.1c-.1.1-.1.2-.1.2s-.1.1-.2.1-.3 0-.2.1c0 .4.1 0 .2.2 0 0-.1.1 0 .1h.1c0 .1-.2 0-.2.1s.2 0 .2.1v.1c.1.1.2.1.2.1h.1c-.1.1-.2.1-.2.1 0 .1.1 0 .1 0s0-.1.1-.1c.7 0-.3.2.3.1.3 0 0-.3.2-.2h.2c.1 0 .1.1.2.1.5-.2-.1 0 .3-.3 0 0 .1.1.1 0 .1 0 .1-.2.1-.1.1 0 0 .1 0 .2v.2h.1c.1.3 0 .4 0 .8 0 .1 0 .3-.1.3-.1.1-.3.1-.4.1"/><path class="st6" d="M760.2 320.9c-.5 1-.5 3.2 0 4.8.3.9.8.6.9.9 0 0 .1.9.2 1.1.2.8 1.5-.6 3.1 1.1 0 0-.4.6-.4.7-.4 1 .1 2 .1 2 1 1.8 1.3 1.5 3.7 1.3.1.1 1 .4 1.1.4 2.4.9 2.2 2.5 2 3-2.9.5-5.6-.3-7.5-1.6-4.3-2.8-5.4-8.6-3.6-12.6.1-.3.3-.8.4-1.1z"/><path class="st8" d="M998.9 363.9c0-.4 0-1-.1-1.8s-.1-1.8-.2-2.8c-.1-1-.2-2.1-.2-3.3-.1-1.1-.2-2.2-.2-3.3-.1-1-.2-2-.2-2.8-.1-.8-.1-1.4-.1-1.8v-.3c0-.4.2-.5.6-.5h.4c.1 1.3.2 2.6.3 3.8.1 1.2.2 2.4.2 3.6l.3 3.6c.1 1.2.2 2.4.3 3.7.2.2.3.4.3.6v1.1c0 .1 0 .3-.1.4s-.1.2-.2.3c-.1.1-.2.1-.4.1s-.3-.1-.3-.2c-.3-.2-.4-.3-.4-.4zM1003.4 359c-.4.2-.7.4-1.1.5-.4.1-.7.1-.9-.2 0-.3.1-.5.3-.6.2-.1.4-.2.7-.3.3-.1.5-.2.8-.2.3-.1.4-.3.5-.6.1-.3.2-.7.3-1.1.1-.4.2-.9.3-1.3.2-.4.4-.8.6-1 .3-.3.6-.4 1.1-.4.3 0 .6.1 1 .3s.8.4 1.1.7c.4.3.7.5.9.8.3.3.4.6.4.8v.3c0 .1-.1.2-.3.2l-4.6 1.6V359.4c0 .3 0 .7.1 1.2 0 .5.2.9.3 1.3.2.4.4.8.6 1.1.3.3.6.5 1.1.5.2 0 .3 0 .4-.1.1-.1.2-.2.4-.2.1-.1.2-.2.4-.2.1-.1.3-.1.4-.1 0 .2 0 .5-.2.7-.1.2-.3.4-.4.6-.2.2-.4.3-.6.4-.2.1-.5.2-.7.2-.6 0-1.1-.2-1.4-.6-.4-.4-.6-.9-.8-1.5-.2-.6-.3-1.2-.4-1.8-.2-1-.2-1.5-.3-1.9zm2.9-4.2c-.3 0-.5.1-.7.2s-.4.4-.5.6c-.1.2-.2.5-.3.8 0 .3-.1.5-.1.8.3 0 .5 0 .8-.1.3 0 .6-.1.9-.2s.6-.2.8-.4c.3-.2.4-.3.5-.6-.2-.4-.5-.7-.7-.9-.1-.1-.4-.2-.7-.2zM1017.1 357.1c-.4 0-.7.1-1 .2-.4.1-.7.2-1 .3-.3.1-.7.2-1 .3-.3.1-.7.1-1.1.1-.2 0-.4-.1-.5-.1-.1-.1-.2-.2-.2-.5 0-.2 0-.3.2-.4.1-.1.2-.1.4-.1h.9c.1 0 .4-.1.7-.2.3-.1.7-.2 1.1-.2.4-.1.7-.2 1.1-.2.3-.1.6-.2.7-.2v-.3-.4-.7c0-.5 0-.9-.1-1.4-.1-.5-.1-.9-.2-1.4-.1-.5-.1-.9-.2-1.4-.1-.5-.1-.9-.1-1.4 0-.2 0-.3.1-.5 0-.2.2-.2.4-.2.1 0 .2 0 .3.1l.2.2.8 6.8h.1c.2 0 .4-.1.7-.1.3-.1.7-.2 1.1-.3s.9-.2 1.3-.4c.5-.1.9-.3 1.3-.4s.8-.2 1.2-.2c.4-.1.6-.1.8 0 .1 0 .2.1.3.2.2.1.2.2.3.3 0 .2-.1.3-.4.5-.3.2-.7.3-1.2.4-.5.1-1 .3-1.6.4-.6.1-1.1.2-1.7.3-.5.1-1 .2-1.4.2-.4.1-.6.1-.7.2v2.4c0 .8.1 1.6.2 2.3.1.8.2 1.5.2 2.3 0 .1 0 .2-.1.3-.1.1-.2.1-.2.2-.1.1-.2.1-.3.2-.1.1-.2.1-.2.1-.1-.7-.2-1.3-.3-1.9-.1-.6-.1-1.1-.1-1.7 0-.6 0-1.1-.1-1.8s-.1-1.3-.1-2.1l-.6.2zM1027.6 355.7c0-.2 0-.5-.1-1 0-.5 0-1-.1-1.5 0-.5-.1-1-.1-1.5s-.1-.8-.1-1v-.3c.2 0 .3 0 .5.1s.3.1.4.3c.1.4.1.8.2 1.1.1.3.1.6.1.9V356.1c-.1.2-.2.3-.4.3s-.2-.1-.3-.2c0-.2-.1-.3-.1-.5zM1032.5 363.6c0-.2 0-.4.1-.5 0-.1.1-.2.2-.3s.2-.1.3 0l.4.4c.3 0 .6 0 1-.1.4 0 .8-.1 1.2-.2l1.2-.3c.4-.1.8-.3 1.1-.5.3-.2.6-.5.8-.8.2-.3.3-.6.3-1s-.2-.7-.6-.9c-.4-.2-.8-.3-1.4-.4l-1.8-.3c-.6-.1-1.2-.3-1.8-.5-.6-.2-1-.5-1.4-.9s-.6-1-.6-1.7c0-.5.1-.9.3-1.3.2-.4.5-.7.9-1 .2-.2.5-.4.9-.7.4-.3.9-.6 1.4-1 .5-.4 1-.7 1.4-1 .4-.3.8-.5.9-.7h.2c.4 0 .6.2.6.6 0 .2-.2.4-.4.6-.3.2-.6.4-1.1.7-.4.2-.9.5-1.4.8-.5.3-1 .6-1.4.9-.4.3-.8.7-1.1 1-.3.4-.4.8-.4 1.2 0 .5.1.8.4 1s.6.4 1 .5c.2.1.5.1 1 .3.5.1 1 .3 1.5.4.5.2 1 .3 1.5.4.5.1.8.2 1 .3.4.2.8.5 1 .7.3.3.4.6.4 1.1s-.1.8-.4 1.2c-.2.4-.5.7-.9 1s-.8.6-1.3.8l-1.5.6c-.5.2-1 .3-1.4.3-.5.1-.9.1-1.2.1-.4 0-.6-.1-.7-.2-.1 0-.2-.3-.2-.6zM1055 348.5c.4 0 .6.1.8.1.2.1.3.3.3.6v.4s-.1.3-.3.3c-.3-.1-.5-.3-.6-.6s-.2-.5-.2-.8zm.4 5.2c.1 0 .2 0 .3.1.1.1.2.2.2.3l1.7 8.1c.2.3.3.5.4.7.1.2.1.4.1.7 0 .2 0 .3-.1.5s-.2.3-.3.3h-.1s-.1-.1-.2-.1l-.4-.4c0-.1-.1-.1-.1-.1l-1.6-9.3.1-.8zM1061 355.7v-.3-.4c0-.1.1-.2.2-.3.1-.1.2-.1.3-.1h.4c0 1.1.1 2.3.2 3.4.1 1.2.3 2.3.6 3.4 0-.2 0-.5.1-.9s.2-.9.2-1.3c.1-.5.2-.9.3-1.3.1-.4.2-.7.2-.9.1-.3.3-.7.5-1 .2-.4.4-.7.7-1 .3-.3.6-.6.9-.7.3-.2.7-.3 1.1-.3.6 0 1.2.2 1.7.4.5.3.9.7 1.3 1.1.4.5.7 1 1 1.6.3.6.5 1.2.7 1.8.2.6.3 1.2.4 1.8.1.6.1 1.1.1 1.5v.6c0 .1-.1.2-.1.2s-.2.1-.3.1c-.2 0-.3-.1-.4-.3 0-.4 0-.9-.1-1.4s-.2-1.1-.3-1.6c-.1-.6-.3-1.1-.5-1.7-.2-.6-.5-1.1-.7-1.5-.3-.4-.6-.8-1-1.1-.4-.3-.9-.4-1.4-.4-.5 0-.8.1-1.1.2-.3.2-.6.4-.8.7-.2.3-.4.6-.5 1l-.3 1.2c-.1.2-.1.6-.2 1.2l-.3 1.8c-.1.7-.2 1.3-.3 1.8-.1.6-.1 1-.1 1.2-.1.2-.1.3-.3.3-.1 0-.3.1-.4.1h-.2l-1.3-8.1v-.3c-.3-.3-.3-.5-.3-.5zM1074.8 355.7v-.3c0-.1 0-.3.1-.4s.1-.2.2-.3c.1-.1.2-.1.3-.1h.4c0 1.1.1 2.3.2 3.4s.3 2.3.6 3.4c0-.2 0-.5.1-.9s.2-.9.2-1.3c.1-.5.2-.9.3-1.3s.2-.7.2-.9c.1-.3.3-.7.5-1s.4-.7.7-1c.3-.3.6-.6.9-.7.3-.2.7-.3 1.1-.3.6 0 1.2.2 1.7.4.5.3.9.7 1.3 1.1.4.5.7 1 1 1.6.3.6.5 1.2.7 1.8.2.6.3 1.2.4 1.8.1.6.1 1.1.1 1.5v.6c0 .1-.1.2-.1.2s-.2.1-.3.1-.3-.1-.4-.3c0-.4-.1-.9-.1-1.4-.1-.5-.2-1.1-.3-1.6-.1-.6-.3-1.1-.5-1.7-.2-.6-.5-1.1-.7-1.5-.3-.4-.6-.8-1-1.1-.4-.3-.9-.4-1.4-.4-.5 0-.8.1-1.1.2-.3.2-.6.4-.8.7-.2.3-.4.6-.5 1l-.3 1.2c0 .2-.1.6-.2 1.2l-.3 1.8c-.1.7-.2 1.3-.3 1.8-.1.6-.1 1-.1 1.2 0 .2-.1.3-.3.3-.1 0-.3.1-.4.1h-.2l-1.3-8.1v-.3c-.4-.3-.4-.5-.4-.5zM1088.5 360.8v-1.3c0-.5 0-1.1.1-1.7.1-.6.2-1.2.3-1.9.1-.6.3-1.2.6-1.7.2-.5.5-.9.9-1.2.4-.3.8-.5 1.3-.5.7 0 1.3.2 1.8.6.5.4.8.9 1 1.5.3.6.4 1.3.5 1.9.1.7.1 1.3.1 1.9 0 .6-.1 1.2-.3 1.9-.2.7-.5 1.3-.8 1.9-.4.6-.8 1.1-1.4 1.5-.6.4-1.2.6-1.9.6-.5 0-.9-.1-1.2-.4-.3-.2-.5-.5-.7-.9s-.3-.7-.3-1.2v-1zm.8-.2v.9c0 .3.1.6.2.9.1.3.2.5.4.7.2.2.5.3.9.3.7 0 1.3-.2 1.7-.5.5-.3.8-.7 1.1-1.2.3-.5.5-1 .6-1.6.1-.6.2-1.2.2-1.7 0-.4 0-.8-.1-1.3 0-.6-.2-1.1-.4-1.6s-.4-1-.8-1.3c-.3-.4-.8-.6-1.3-.6-.4 0-.7.2-1 .5-.3.3-.5.7-.7 1.2-.2.5-.3 1-.4 1.6-.1.6-.2 1.1-.3 1.6-.1.5-.1 1-.1 1.4v.7zM1097.9 354.6c.2-.3.5-.5.7-.4.2.1.4.2.5.4l.4.8c.2.3.4.7.6 1.2s.5.9.7 1.4c.3.5.5.9.7 1.4l.6 1.2c.2.4.4.6.4.8.1.1.1.2.2.3.1.2.2.3.3.5.1.2.3.3.4.4.1.1.2.2.3.2h.2l2.5-9.8 1.1.6c-.4.8-.7 1.6-1 2.5-.3.9-.6 1.8-.8 2.7l-.6 2.7c-.2.9-.3 1.7-.4 2.5 0 .1-.1.2-.1.2-.1.1-.1.2-.2.3-.1.1-.1.2-.2.2-.1.1-.2.1-.2.1-.2 0-.3-.1-.4-.2-.1-.1-.2-.3-.3-.4-.5-.6-1.1-1.4-1.6-2.2-.6-.8-1.1-1.7-1.6-2.6-.5-.9-1-1.7-1.4-2.5-.3-1.1-.6-1.8-.8-2.3zM1110.2 362c0-.5.1-1 .2-1.7s.3-1.4.5-2.1.5-1.5.8-2.2c.3-.7.7-1.4 1.1-2 .4-.6.8-1.1 1.3-1.4.5-.4 1.1-.6 1.7-.6 0 .2-.1.4-.3.7l-.6.6c-.2.2-.5.4-.7.6l-.5.5c-.4.5-.7 1-1 1.6-.3.6-.6 1.2-.8 1.8-.2.6-.4 1.3-.5 1.9-.1.7-.2 1.3-.2 1.9 0 .1 0 .3.1.4 0 .2.1.4.1.6s.1.4.2.5c.1.2.2.2.3.2h.2c.4-.5.8-1 1.1-1.5.3-.6.5-1.1.7-1.7s.4-1.2.5-1.8c.2-.6.3-1.2.4-1.8.1-.2.1-.4.1-.8s0-.7.1-1c0-.3.1-.6.3-.9.1-.3.4-.4.7-.4H1116.3c.6 1.2 1.1 2.2 1.5 3.1s.8 1.5 1 2.1c.3.6.5 1 .7 1.3.2.3.3.6.4.7.1.2.2.3.2.3v.1c0 .1 0 .2.1.4v1.3h-.5c-.2 0-.3-.1-.4-.3l-3-6.2-.3-.3c0 .2-.1.5-.3.9-.1.5-.3.9-.4 1.4s-.3 1-.4 1.4c-.1.5-.2.8-.3.9-.1.2-.2.6-.4 1s-.3.9-.6 1.3c-.2.4-.5.8-.8 1.1-.3.3-.6.5-1 .5-.3 0-.5-.1-.7-.3-.2-.2-.4-.4-.5-.7-.1-.3-.2-.6-.3-.8-.1-.2-.1-.5-.1-.6zM1126.3 357.1c-.4 0-.7.1-1 .2-.4.1-.7.2-1 .3-.3.1-.7.2-1 .3-.3.1-.7.1-1.1.1-.2 0-.4-.1-.5-.1-.1-.1-.2-.2-.2-.5 0-.2 0-.3.2-.4.1-.1.2-.1.4-.1h.9c.1 0 .4-.1.7-.2.3-.1.7-.2 1.1-.2.4-.1.7-.2 1.1-.2.3-.1.6-.2.7-.2v-.3-.4-.7c0-.5 0-.9-.1-1.4s-.1-.9-.2-1.4-.1-.9-.2-1.4-.1-.9-.1-1.4c0-.2 0-.3.1-.5s.2-.2.4-.2c.1 0 .2 0 .3.1l.2.2.8 6.8h.2c.2 0 .4-.1.7-.1.3-.1.7-.2 1.1-.3s.9-.2 1.3-.4c.5-.1.9-.3 1.3-.4s.8-.2 1.2-.2.6-.1.8 0c.1 0 .2.1.3.2.2.1.2.2.3.3 0 .2-.1.3-.4.5-.3.2-.7.3-1.2.4-.5.1-1 .3-1.6.4-.6.1-1.1.2-1.7.3-.5.1-1 .2-1.4.2s-.6.1-.7.2v2.4c0 .8 0 1.6.2 2.3.1.8.2 1.5.2 2.3 0 .1 0 .2-.1.3-.1.1-.2.1-.2.2-.1.1-.2.1-.3.2-.1.1-.2.1-.2.1-.1-.7-.2-1.3-.3-1.9-.1-.6-.1-1.1-.1-1.7 0-.6-.1-1.1-.1-1.8s-.1-1.3-.1-2.1l-.7.2zM1135.9 359c-.4.2-.7.4-1.1.5-.4.1-.7.1-.9-.2 0-.3.1-.5.3-.6.2-.1.4-.2.7-.3.3-.1.5-.2.8-.2.3-.1.4-.3.5-.6.1-.3.2-.7.3-1.1.1-.4.2-.9.3-1.3.2-.4.4-.8.6-1 .3-.3.6-.4 1.1-.4.3 0 .6.1 1 .3s.8.4 1.1.7.7.5.9.8c.3.3.4.6.4.8v.3c0 .1-.1.2-.3.2l-4.6 1.6V359.4c0 .3 0 .7.1 1.2 0 .5.2.9.3 1.3.2.4.4.8.6 1.1.3.3.6.5 1.1.5.2 0 .3 0 .4-.1.1-.1.2-.2.4-.2.1-.1.2-.2.4-.2.1-.1.3-.1.4-.1 0 .2 0 .5-.2.7-.1.2-.3.4-.4.6-.2.2-.4.3-.6.4-.2.1-.5.2-.7.2-.6 0-1.1-.2-1.4-.6-.4-.4-.6-.9-.8-1.5-.2-.6-.3-1.2-.4-1.8-.2-1-.3-1.5-.3-1.9zm2.8-4.2c-.3 0-.5.1-.7.2s-.4.4-.5.6c-.1.2-.2.5-.3.8-.1.3-.1.5-.1.8.3 0 .5 0 .8-.1.3 0 .6-.1.9-.2.3-.1.6-.2.8-.4.3-.2.4-.3.5-.6-.2-.4-.5-.7-.7-.9 0-.1-.3-.2-.7-.2z"/></svg>